<?xml version="1.0" encoding="UTF-8" standalone="no"?>
<svg
   xmlns:dc="http://purl.org/dc/elements/1.1/"
   xmlns:cc="http://creativecommons.org/ns#"
   xmlns:rdf="http://www.w3.org/1999/02/22-rdf-syntax-ns#"
   xmlns="http://www.w3.org/2000/svg"
   xmlns:sodipodi="http://sodipodi.sourceforge.net/DTD/sodipodi-0.dtd"
   xmlns:inkscape="http://www.inkscape.org/namespaces/inkscape"
   enable-background="new 0 0 595.275 311.111"
   xml:space="preserve"
   width="48"
   height="48"
   id="ic-launcher"
   version="1.1"
   inkscape:version="0.91 r13725"
   sodipodi:docname="icon.svg"><metadata
     id="metadata3420"><rdf:RDF><cc:Work
         rdf:about=""><dc:format>image/svg+xml</dc:format><dc:type
           rdf:resource="http://purl.org/dc/dcmitype/StillImage" /></cc:Work></rdf:RDF></metadata><sodipodi:namedview
     pagecolor="#ffffff"
     bordercolor="#666666"
     borderopacity="1"
     objecttolerance="10"
     gridtolerance="10"
     guidetolerance="10"
     inkscape:pageopacity="0"
     inkscape:pageshadow="2"
     inkscape:window-width="1918"
     inkscape:window-height="1027"
     id="namedview3418"
     showgrid="false"
     inkscape:snap-others="true"
     inkscape:snap-grids="false"
     inkscape:snap-global="false"
     inkscape:zoom="18.020833"
     inkscape:cx="12.568786"
     inkscape:cy="24"
     inkscape:window-x="0"
     inkscape:window-y="0"
     inkscape:window-maximized="0"
     inkscape:current-layer="ic-launcher" /><defs
     id="defs3399"><!-- Shadow --><filter
       id="shadow"><feGaussianBlur
         in="SourceAlpha"
         stdDeviation=".75"
         id="feGaussianBlur3402" /><feOffset
         dx="0"
         dy="1"
         result="offsetblur"
         id="feOffset3404" /><feFlood
         flood-color="#000"
         flood-opacity="0.3"
         id="feFlood3406" /><feComposite
         in2="offsetblur"
         operator="in"
         id="feComposite3408" /><feMerge
         id="feMerge3410"><feMergeNode
           id="feMergeNode3412" /><feMergeNode
           in="SourceGraphic"
           id="feMergeNode3414" /></feMerge></filter></defs><!-- Material background --><rect
     id="material"
     width="46"
     height="46"
     x="1"
     y="1"
     rx="3"
     ry="3"
     fill="#1d2d44"
     style="filter: url(#shadow);" /><!-- ownCloud cloud --><path
     id="cloud"
     style="color:#000000;text-indent:0;text-transform:none;block-progression:tb;fill:#ffffff;enable-background:accumulate"
     d="m 22.299491,13.890626 c -2.679541,0 -4.84439,2.16485 -4.84439,4.84439 0,1.104542 0.367796,2.12117 0.987888,2.935149 1.345229,-1.556915 3.330555,-2.545739 5.547364,-2.545739 1.084537,0 2.113009,0.241505 3.03967,0.664925 0.07503,-0.339309 0.113996,-0.692191 0.113996,-1.054382 0,-2.679541 -2.164849,-4.84439 -4.844392,-4.84439 z m -6.326305,2.241772 c -1.39551,0 -2.517177,1.131253 -2.517177,2.526657 0,0.451812 0.116542,0.87871 0.322964,1.244308 0.842073,-0.475017 1.815643,-0.750413 2.849706,-0.750413 0.09981,0 0.195915,0.0036 0.294463,0.0095 -0.01101,-0.141459 -0.01897,-0.283147 -0.01897,-0.427451 0,-0.777232 0.168808,-1.516714 0.465441,-2.184769 -0.399389,-0.267821 -0.877902,-0.417944 -1.396348,-0.417944 z m 11.949632,1.73836 c -0.103113,0 -0.202467,0.01259 -0.303965,0.01895 0.0439,0.276822 0.07598,0.556342 0.07598,0.845407 0,0.44984 -0.05721,0.883915 -0.161477,1.301308 1.22247,0.676553 2.237812,1.6888 2.90671,2.916188 0.693805,-0.361209 1.467753,-0.590871 2.289289,-0.645928 -0.211707,-2.482731 -2.268531,-4.436015 -4.806466,-4.436015 z M 23.990329,19.6756 c -3.749485,0 -6.782193,3.032466 -6.782193,6.782193 0,3.749368 3.032467,6.782194 6.782193,6.782194 3.749727,0 6.782194,-3.032826 6.782194,-6.782194 0,-3.749845 -3.032707,-6.782193 -6.782194,-6.782193 z m -7.361686,0.02845 c -2.908988,0 -5.262361,2.353493 -5.262361,5.262358 0,1.71244 0.815911,3.228315 2.080247,4.189055 0.533028,-1.02805 1.603599,-1.728759 2.840226,-1.728759 0.149451,0 0.292902,0.01812 0.436954,0.03806 -0.04524,-0.328975 -0.0665,-0.665546 -0.0665,-1.006884 0,-1.631916 0.531216,-3.14107 1.434272,-4.359939 -0.540599,-0.676468 -0.927476,-1.489235 -1.092371,-2.374734 -0.122213,-0.0083 -0.246067,-0.01895 -0.37046,-0.01895 z m 16.489575,3.13459 c -0.883292,0 -1.710639,0.22551 -2.441216,0.607933 0.414813,0.918838 0.645928,1.938287 0.645928,3.011111 0,2.008844 -0.807642,3.832767 -2.11829,5.157957 0.962818,1.068935 2.359734,1.738359 3.913531,1.738359 2.908983,0 5.262358,-2.353493 5.262358,-5.262358 0,-2.908988 -2.353493,-5.252883 -5.262358,-5.252883 z M 10.852912,23.532113 C 8.174328,23.530913 6,25.686162 6,28.365821 c 0,2.679663 2.174328,4.853992 4.853992,4.853992 1.019915,0 1.964684,-0.317768 2.74518,-0.854899 -0.322507,-0.501145 -0.512939,-1.10028 -0.512939,-1.738359 0,-0.331159 0.04889,-0.649298 0.142479,-0.949893 -1.461153,-1.055929 -2.412775,-2.774227 -2.412775,-4.711428 0,-0.492206 0.06486,-0.968135 0.180487,-1.424793 -0.04797,-0.0012 -0.09414,-0.0095 -0.142493,-0.0095 z m 28.487447,4.160495 c -0.142947,0 -0.281273,0.01632 -0.417944,0.03805 0.0075,0.120827 0.0094,0.238226 0.0094,0.360953 0,1.545035 -0.609638,2.947389 -1.595796,3.989491 0.485171,0.564195 1.197818,0.921394 2.004286,0.921394 1.468951,0 2.65974,-1.181224 2.65974,-2.65014 0,-1.468916 -1.190726,-2.65974 -2.65974,-2.65974 z m -23.053726,0.284959 c -1.468833,0 -2.650139,1.181306 -2.650139,2.650139 0,1.468833 1.181294,2.65974 2.650139,2.65974 1.125927,0 2.081569,-0.702567 2.469656,-1.690838 -0.946976,-0.964487 -1.627596,-2.194972 -1.928324,-3.562041 -0.17597,-0.03636 -0.354584,-0.05701 -0.541438,-0.05701 z"
     inkscape:connector-curvature="0" /></svg>